<?xml version="1.0" encoding="UTF-8"?>
<svg width="48" height="48" viewBox="0 0 48 48" version="1.1" xmlns="http://www.w3.org/2000/svg">
    <path fill="currentColor" d="M24 6c1.1 0 2 .9 2 2v2.3l10.5 4.7c.3-.6 1-1 1.7-1 1.1 0 2 .9 2 2s-.9 2-2 2h-.3l-2.5 11c-.1.5-.4.9-.9 1.2-.4.3-1 .4-1.5.3l-7-1.6V34h2c1.1 0 2 .9 2 2s-.9 2-2 2H20c-1.1 0-2-.9-2-2s.9-2 2-2h2v-6.1l-7 1.6c-.5.1-1 0-1.5-.3-.4-.3-.7-.7-.9-1.2l-2.5-11H10c-1.1 0-2-.9-2-2s.9-2 2-2c.7 0 1.4.4 1.7 1L22 10.3V8c0-1.1.9-2 2-2zm8.4 12h-16.8l2 8.9 6.4-1.4 6.4 1.4 2-8.9z"/>
</svg>